<?xml version="1.0" standalone="no"?><!DOCTYPE svg PUBLIC "-//W3C//DTD SVG 1.1//EN" "http://www.w3.org/Graphics/SVG/1.1/DTD/svg11.dtd"><svg t="1621064011924" class="icon" viewBox="0 0 1024 1024" version="1.1" xmlns="http://www.w3.org/2000/svg" p-id="4772" xmlns:xlink="http://www.w3.org/1999/xlink" width="200" height="200"><defs><style type="text/css"></style></defs><path d="M827.52 279.68c-4.48 0-7.68-3.2-7.68-7.68V58.24c0-11.52-9.6-21.12-21.12-21.12h-112.64c-11.52 0-21.12 9.6-21.12 21.12v92.8c0 4.48-3.2 7.68-7.68 7.68s-7.68-3.2-7.68-7.68V58.24c0-19.84 16-35.84 35.84-35.84h112.64c19.84 0 35.84 16 35.84 35.84v213.76c0.64 3.84-2.56 7.68-6.4 7.68z" fill="#00ABE0" p-id="4773"></path><path d="M742.4 270.72c-4.48 0-7.68-3.2-7.68-7.68V158.72H496v81.92c0 4.48-3.2 7.68-7.68 7.68s-7.68-3.2-7.68-7.68v-89.6c0-4.48 3.2-7.68 7.68-7.68H742.4c4.48 0 7.68 3.2 7.68 7.68v112.64c0 3.84-3.2 7.04-7.68 7.04z" fill="#00ABE0" p-id="4774"></path><path d="M403.84 206.72c-4.48 0-7.68-3.2-7.68-7.68V81.92c0-40.96 33.28-73.6 73.6-73.6 40.96 0 73.6 33.28 73.6 73.6v69.12c0 4.48-3.2 7.68-7.68 7.68s-7.68-3.2-7.68-7.68V81.92c0-32-26.24-58.88-58.88-58.88s-58.88 26.24-58.88 58.88v117.12c1.28 4.48-2.56 7.68-6.4 7.68z" fill="#00ABE0" p-id="4775"></path><path d="M443.52 243.84c-4.48 0-7.68-3.2-7.68-7.68v-29.44H277.76v14.08c0 4.48-3.2 7.68-7.68 7.68s-7.68-3.2-7.68-7.68v-21.12c0-4.48 3.2-7.68 7.68-7.68h173.44c4.48 0 7.68 3.2 7.68 7.68V236.8c0 3.84-3.84 7.04-7.68 7.04zM243.84 931.84c-27.52 0-49.92-22.4-49.92-49.92s22.4-49.92 49.92-49.92 49.92 22.4 49.92 49.92-22.4 49.92-49.92 49.92z m0-84.48c-19.2 0-34.56 15.36-34.56 34.56 0 19.2 15.36 34.56 34.56 34.56 19.2 0 34.56-15.36 34.56-34.56 0-19.2-15.36-34.56-34.56-34.56zM771.84 931.84c-27.52 0-49.92-22.4-49.92-49.92s22.4-49.92 49.92-49.92 49.92 22.4 49.92 49.92-22.4 49.92-49.92 49.92z m0-84.48c-19.2 0-34.56 15.36-34.56 34.56 0 19.2 15.36 34.56 34.56 34.56 19.2 0 34.56-15.36 34.56-34.56 0.64-19.2-15.36-34.56-34.56-34.56z" fill="#00ABE0" p-id="4776"></path><path d="M814.72 889.6c-4.48 0-7.68-3.2-7.68-7.68v-90.24c0-4.48 3.2-7.68 7.68-7.68s7.68 3.2 7.68 7.68v90.24c-0.64 4.48-3.84 7.68-7.68 7.68zM286.08 889.6c-4.48 0-7.68-3.2-7.68-7.68v-90.24c0-4.48 3.2-7.68 7.68-7.68s7.68 3.2 7.68 7.68v90.24c0 4.48-3.2 7.68-7.68 7.68z" fill="#00ABE0" p-id="4777"></path><path d="M202.88 641.92c-3.84 0-7.04-2.56-7.68-6.4L124.16 209.28c-0.64-2.56 0.64-4.48 1.92-6.4 1.28-1.92 3.84-2.56 6.4-2.56l782.08 71.04c3.84 0.64 7.04 3.84 7.04 7.68v213.12c0 44.8-33.28 81.92-78.08 86.4l-640 64-0.64-0.64zM140.8 216.32l68.48 410.24 632.96-63.36c36.48-3.84 64.64-33.92 64.64-71.04V286.08L140.8 216.32z" fill="#211D1C" p-id="4778"></path><path d="M660.48 316.8c-4.48 0-7.68-3.2-7.68-7.68v-1.28c0-4.48 3.2-7.68 7.68-7.68s7.68 3.2 7.68 7.68v1.28c-0.64 4.48-3.84 7.68-7.68 7.68zM660.48 524.8c-4.48 0-7.68-3.2-7.68-7.68v-3.2c0-4.48 3.2-7.68 7.68-7.68s7.68 3.2 7.68 7.68v3.2c-0.64 4.48-3.84 7.68-7.68 7.68z m0-20.48c-4.48 0-7.68-3.2-7.68-7.68v-3.2c0-4.48 3.2-7.68 7.68-7.68s7.68 3.2 7.68 7.68v3.2c-0.64 4.48-3.84 7.68-7.68 7.68z m0-21.12c-4.48 0-7.68-3.2-7.68-7.68v-3.2c0-4.48 3.2-7.68 7.68-7.68s7.68 3.2 7.68 7.68v3.2c-0.64 4.48-3.84 7.68-7.68 7.68z m0-20.48c-4.48 0-7.68-3.2-7.68-7.68v-3.2c0-4.48 3.2-7.68 7.68-7.68s7.68 3.2 7.68 7.68v3.2c-0.64 3.84-3.84 7.68-7.68 7.68z m0-21.12c-4.48 0-7.68-3.2-7.68-7.68v-3.2c0-4.48 3.2-7.68 7.68-7.68s7.68 3.2 7.68 7.68v3.2c-0.64 4.48-3.84 7.68-7.68 7.68z m0-20.48c-4.48 0-7.68-3.2-7.68-7.68v-3.2c0-4.48 3.2-7.68 7.68-7.68s7.68 3.2 7.68 7.68v3.2c-0.64 3.84-3.84 7.68-7.68 7.68z m0-21.12c-4.48 0-7.68-3.2-7.68-7.68v-3.2c0-4.48 3.2-7.68 7.68-7.68s7.68 3.2 7.68 7.68v3.2c-0.64 4.48-3.84 7.68-7.68 7.68z m0-20.48c-4.48 0-7.68-3.2-7.68-7.68v-3.2c0-4.48 3.2-7.68 7.68-7.68s7.68 3.2 7.68 7.68v3.2c-0.64 3.84-3.84 7.68-7.68 7.68z m0-21.12c-4.48 0-7.68-3.2-7.68-7.68v-3.2c0-4.48 3.2-7.68 7.68-7.68s7.68 3.2 7.68 7.68v3.2c-0.64 4.48-3.84 7.68-7.68 7.68z m0-20.48c-4.48 0-7.68-3.2-7.68-7.68v-3.2c0-4.48 3.2-7.68 7.68-7.68s7.68 3.2 7.68 7.68v3.2c-0.64 3.84-3.84 7.68-7.68 7.68zM660.48 544.64c-4.48 0-7.68-3.2-7.68-7.68v-1.28c0-4.48 3.2-7.68 7.68-7.68s7.68 3.2 7.68 7.68v1.28c-0.64 3.84-3.84 7.68-7.68 7.68zM787.2 329.6c-4.48 0-7.68-3.2-7.68-7.68v-1.28c0-4.48 3.2-7.68 7.68-7.68s7.68 3.2 7.68 7.68v1.28c0 4.48-3.2 7.68-7.68 7.68zM787.2 509.44c-4.48 0-7.68-3.2-7.68-7.68v-3.2c0-4.48 3.2-7.68 7.68-7.68s7.68 3.2 7.68 7.68v3.2c0 4.48-3.2 7.68-7.68 7.68z m0-22.4c-4.48 0-7.68-3.2-7.68-7.68v-3.2c0-4.48 3.2-7.68 7.68-7.68s7.68 3.2 7.68 7.68v3.2c0 4.48-3.2 7.68-7.68 7.68z m0-22.4c-4.48 0-7.68-3.2-7.68-7.68v-3.2c0-4.48 3.2-7.68 7.68-7.68s7.68 3.2 7.68 7.68v3.2c0 3.84-3.2 7.68-7.68 7.68z m0-22.4c-4.48 0-7.68-3.2-7.68-7.68v-3.2c0-4.48 3.2-7.68 7.68-7.68s7.68 3.2 7.68 7.68v3.2c0 3.84-3.2 7.68-7.68 7.68z m0-22.4c-4.48 0-7.68-3.2-7.68-7.68v-3.2c0-4.48 3.2-7.68 7.68-7.68s7.68 3.2 7.68 7.68v3.2c0 3.84-3.2 7.68-7.68 7.68z m0-22.4c-4.48 0-7.68-3.2-7.68-7.68v-3.2c0-4.48 3.2-7.68 7.68-7.68s7.68 3.2 7.68 7.68v3.2c0 3.84-3.2 7.68-7.68 7.68z m0-23.04c-4.48 0-7.68-3.2-7.68-7.68v-3.2c0-4.48 3.2-7.68 7.68-7.68s7.68 3.2 7.68 7.68v3.2c0 4.48-3.2 7.68-7.68 7.68z m0-22.4c-4.48 0-7.68-3.2-7.68-7.68v-3.2c0-4.48 3.2-7.68 7.68-7.68s7.68 3.2 7.68 7.68v3.2c0 4.48-3.2 7.68-7.68 7.68zM787.2 530.56c-4.48 0-7.68-3.2-7.68-7.68v-1.28c0-4.48 3.2-7.68 7.68-7.68s7.68 3.2 7.68 7.68v1.28c0 3.84-3.2 7.68-7.68 7.68zM405.76 291.2c-4.48 0-7.68-3.2-7.68-7.68V281.6c0-4.48 3.2-7.68 7.68-7.68s7.68 3.2 7.68 7.68v1.28c0 4.48-3.2 8.32-7.68 8.32zM405.76 552.96c-4.48 0-7.68-3.2-7.68-7.68v-3.2c0-4.48 3.2-7.68 7.68-7.68s7.68 3.2 7.68 7.68v3.2c0 3.84-3.2 7.68-7.68 7.68z m0-22.4c-4.48 0-7.68-3.2-7.68-7.68v-3.2c0-4.48 3.2-7.68 7.68-7.68s7.68 3.2 7.68 7.68v3.2c0 4.48-3.2 7.68-7.68 7.68z m0-21.76c-4.48 0-7.68-3.2-7.68-7.68v-3.2c0-4.48 3.2-7.68 7.68-7.68s7.68 3.2 7.68 7.68v3.2c0 4.48-3.2 7.68-7.68 7.68z m0-21.76c-4.48 0-7.68-3.2-7.68-7.68v-3.2c0-4.48 3.2-7.68 7.68-7.68s7.68 3.2 7.68 7.68v3.2c0 4.48-3.2 7.68-7.68 7.68z m0-21.76c-4.48 0-7.68-3.2-7.68-7.68V454.4c0-4.48 3.2-7.68 7.68-7.68s7.68 3.2 7.68 7.68v3.2c0 4.48-3.2 7.68-7.68 7.68z m0-21.76c-4.48 0-7.68-3.2-7.68-7.68v-3.2c0-4.48 3.2-7.68 7.68-7.68s7.68 3.2 7.68 7.68v3.2c0 4.48-3.2 7.68-7.68 7.68z m0-21.76c-4.48 0-7.68-3.2-7.68-7.68v-3.2c0-4.48 3.2-7.68 7.68-7.68s7.68 3.2 7.68 7.68v3.2c0 4.48-3.2 7.68-7.68 7.68z m0-21.76c-4.48 0-7.68-3.2-7.68-7.68v-3.2c0-4.48 3.2-7.68 7.68-7.68s7.68 3.2 7.68 7.68v3.2c0 4.48-3.2 7.68-7.68 7.68z m0-21.76c-4.48 0-7.68-3.2-7.68-7.68v-3.2c0-4.48 3.2-7.68 7.68-7.68s7.68 3.2 7.68 7.68v3.2c0 4.48-3.2 7.68-7.68 7.68z m0-21.76c-4.48 0-7.68-3.2-7.68-7.68V345.6c0-4.48 3.2-7.68 7.68-7.68s7.68 3.2 7.68 7.68v3.2c0 4.48-3.2 7.68-7.68 7.68z m0-21.76c-4.48 0-7.68-3.2-7.68-7.68v-3.2c0-4.48 3.2-7.68 7.68-7.68s7.68 3.2 7.68 7.68v3.2c0 4.48-3.2 7.68-7.68 7.68z m0-21.76c-4.48 0-7.68-3.2-7.68-7.68v-3.2c0-4.48 3.2-7.68 7.68-7.68s7.68 3.2 7.68 7.68v3.2c0 3.84-3.2 7.68-7.68 7.68zM405.76 572.8c-4.48 0-7.68-3.2-7.68-7.68v-1.28c0-4.48 3.2-7.68 7.68-7.68s7.68 3.2 7.68 7.68v1.28c0 4.48-3.2 7.68-7.68 7.68zM279.04 277.76c-4.48 0-7.68-3.2-7.68-7.68V268.8c0-4.48 3.2-7.68 7.68-7.68s7.68 3.2 7.68 7.68v1.28c-0.64 4.48-3.84 7.68-7.68 7.68zM279.04 566.4c-4.48 0-7.68-3.2-7.68-7.68v-3.2c0-4.48 3.2-7.68 7.68-7.68s7.68 3.2 7.68 7.68v3.2c-0.64 4.48-3.84 7.68-7.68 7.68z m0-21.76c-4.48 0-7.68-3.2-7.68-7.68v-3.2c0-4.48 3.2-7.68 7.68-7.68s7.68 3.2 7.68 7.68v3.2c-0.64 3.84-3.84 7.68-7.68 7.68z m0-22.4c-4.48 0-7.68-3.2-7.68-7.68v-3.2c0-4.48 3.2-7.68 7.68-7.68s7.68 3.2 7.68 7.68v3.2c-0.64 4.48-3.84 7.68-7.68 7.68z m0-22.4c-4.48 0-7.68-3.2-7.68-7.68v-3.2c0-4.48 3.2-7.68 7.68-7.68s7.68 3.2 7.68 7.68v3.2c-0.64 4.48-3.84 7.68-7.68 7.68z m0-21.76c-4.48 0-7.68-3.2-7.68-7.68V467.2c0-4.48 3.2-7.68 7.68-7.68s7.68 3.2 7.68 7.68v3.2c-0.64 3.84-3.84 7.68-7.68 7.68z m0-22.4c-4.48 0-7.68-3.2-7.68-7.68v-3.2c0-4.48 3.2-7.68 7.68-7.68s7.68 3.2 7.68 7.68v3.2c-0.64 4.48-3.84 7.68-7.68 7.68z m0-22.4c-4.48 0-7.68-3.2-7.68-7.68V422.4c0-4.48 3.2-7.68 7.68-7.68s7.68 3.2 7.68 7.68v3.2c-0.64 4.48-3.84 7.68-7.68 7.68z m0-22.4c-4.48 0-7.68-3.2-7.68-7.68v-3.2c0-4.48 3.2-7.68 7.68-7.68s7.68 3.2 7.68 7.68v3.2c-0.64 4.48-3.84 7.68-7.68 7.68z m0-21.76c-4.48 0-7.68-3.2-7.68-7.68v-3.2c0-4.48 3.2-7.68 7.68-7.68s7.68 3.2 7.68 7.68v3.2c-0.64 4.48-3.84 7.68-7.68 7.68z m0-22.4c-4.48 0-7.68-3.2-7.68-7.68v-3.2c0-4.48 3.2-7.68 7.68-7.68s7.68 3.2 7.68 7.68v3.2c-0.64 4.48-3.84 7.68-7.68 7.68z m0-22.4c-4.48 0-7.68-3.2-7.68-7.68v-3.2c0-4.48 3.2-7.68 7.68-7.68s7.68 3.2 7.68 7.68v3.2c-0.64 4.48-3.84 7.68-7.68 7.68z m0-21.76c-4.48 0-7.68-3.2-7.68-7.68v-3.2c0-4.48 3.2-7.68 7.68-7.68s7.68 3.2 7.68 7.68v3.2c-0.64 4.48-3.84 7.68-7.68 7.68z m0-22.4c-4.48 0-7.68-3.2-7.68-7.68v-3.2c0-4.48 3.2-7.68 7.68-7.68s7.68 3.2 7.68 7.68v3.2c-0.64 4.48-3.84 7.68-7.68 7.68zM279.04 586.88c-4.48 0-7.68-3.2-7.68-7.68v-1.28c0-4.48 3.2-7.68 7.68-7.68s7.68 3.2 7.68 7.68v1.28c-0.64 4.48-3.84 7.68-7.68 7.68zM533.12 304c-4.48 0-7.68-3.2-7.68-7.68v-1.28c0-4.48 3.2-7.68 7.68-7.68s7.68 3.2 7.68 7.68v1.28c0 4.48-3.84 7.68-7.68 7.68zM533.12 538.88c-4.48 0-7.68-3.2-7.68-7.68v-3.2c0-4.48 3.2-7.68 7.68-7.68s7.68 3.2 7.68 7.68v3.2c0 4.48-3.84 7.68-7.68 7.68z m0-21.12c-4.48 0-7.68-3.2-7.68-7.68v-3.2c0-4.48 3.2-7.68 7.68-7.68s7.68 3.2 7.68 7.68v3.2c0 3.84-3.84 7.68-7.68 7.68z m0-21.76c-4.48 0-7.68-3.2-7.68-7.68v-3.2c0-4.48 3.2-7.68 7.68-7.68s7.68 3.2 7.68 7.68v3.2c0 4.48-3.84 7.68-7.68 7.68z m0-21.12c-4.48 0-7.68-3.2-7.68-7.68v-3.2c0-4.48 3.2-7.68 7.68-7.68s7.68 3.2 7.68 7.68v3.2c0 3.84-3.84 7.68-7.68 7.68z m0-21.76c-4.48 0-7.68-3.2-7.68-7.68v-3.2c0-4.48 3.2-7.68 7.68-7.68s7.68 3.2 7.68 7.68v3.2c0 4.48-3.84 7.68-7.68 7.68z m0-21.12c-4.48 0-7.68-3.2-7.68-7.68v-3.2c0-4.48 3.2-7.68 7.68-7.68s7.68 3.2 7.68 7.68v3.2c0 4.48-3.84 7.68-7.68 7.68z m0-21.12c-4.48 0-7.68-3.2-7.68-7.68v-3.2c0-4.48 3.2-7.68 7.68-7.68s7.68 3.2 7.68 7.68v3.2c0 3.84-3.84 7.68-7.68 7.68z m0-21.76c-4.48 0-7.68-3.2-7.68-7.68v-3.2c0-4.48 3.2-7.68 7.68-7.68s7.68 3.2 7.68 7.68v3.2c0 4.48-3.84 7.68-7.68 7.68z m0-21.12c-4.48 0-7.68-3.2-7.68-7.68v-3.2c0-4.48 3.2-7.68 7.68-7.68s7.68 3.2 7.68 7.68v3.2c0 4.48-3.84 7.68-7.68 7.68z m0-21.12c-4.48 0-7.68-3.2-7.68-7.68v-3.2c0-4.48 3.2-7.68 7.68-7.68s7.68 3.2 7.68 7.68v3.2c0 3.84-3.84 7.68-7.68 7.68z m0-21.76c-4.48 0-7.68-3.2-7.68-7.68v-3.2c0-4.48 3.2-7.68 7.68-7.68s7.68 3.2 7.68 7.68v3.2c0 4.48-3.84 7.68-7.68 7.68zM533.12 558.72c-4.48 0-7.68-3.2-7.68-7.68v-1.28c0-4.48 3.2-7.68 7.68-7.68s7.68 3.2 7.68 7.68v1.28c0 4.48-3.84 7.68-7.68 7.68zM96 286.72a42.88 42.88 0 0 1 0-85.76h35.84c4.48 0 7.68 3.2 7.68 7.68s-3.2 7.68-7.68 7.68H96c-15.36 0-28.16 12.8-28.16 28.16s12.8 28.16 28.16 28.16c4.48 0 7.68 3.2 7.68 7.68 0 3.2-3.84 6.4-7.68 6.4zM874.24 799.36H185.6c-24.96 0-45.44-20.48-45.44-45.44v-4.48c0-4.48 3.2-7.68 7.68-7.68h764.8c4.48 0 7.68 3.2 7.68 7.68v4.48c-0.64 24.96-21.12 45.44-46.08 45.44z m-718.72-42.88c1.28 15.36 14.72 27.52 30.08 27.52h688.64c16 0 28.8-12.16 30.08-27.52h-748.8z" fill="#211D1C" p-id="4779"></path><path d="M147.84 756.48c-1.28 0-1.92 0-3.2-0.64-3.84-1.92-5.12-6.4-3.84-10.24l55.04-114.56c1.92-3.84 6.4-5.12 10.24-3.84 3.84 1.92 5.12 6.4 3.84 10.24l-55.04 114.56c-1.28 3.2-4.48 4.48-7.04 4.48z" fill="#211D1C" p-id="4780"></path></svg>