<?xml version="1.0" standalone="no"?><!DOCTYPE svg PUBLIC "-//W3C//DTD SVG 1.1//EN" "http://www.w3.org/Graphics/SVG/1.1/DTD/svg11.dtd"><svg t="1622213074944" class="icon" viewBox="0 0 1024 1024" version="1.1" xmlns="http://www.w3.org/2000/svg" p-id="6152" xmlns:xlink="http://www.w3.org/1999/xlink" width="200" height="200"><defs><style type="text/css"></style></defs><path d="M758 760H264l19.573-153.357h39.253c9.785 0 17.871-7.976 17.871-17.868 0-9.783-7.977-17.867-17.871-17.867h-33.828l5.318-42.753h57.973c9.786 0 17.872-8.083 17.872-17.868 0-9.785-7.977-17.867-17.872-17.867h-52.655L311.228 405h399.649L758 760z" fill="#FFC10D" p-id="6153"></path><path d="M513 493c-33.074 0-59 32.023-59 72s26.78 72 59 72c33.074 0 59-32.023 59-72s-25.926-72-59-72z" fill="#24E9E6" p-id="6154"></path><path d="M832.817 771.279l-51.62-391.169c-3.612-26.845-26.767-46.446-53.427-46.446h-89.114v-20.56C638.655 244.288 582.573 189 513.108 189c-69.466 0-125.547 55.394-125.547 124.104v20.56h-89.009c-26.766 0-49.815 19.601-53.426 46.446L192.549 771.28C188.09 800.787 211.243 832 245.975 832h533.416c29.422-0.002 56.081-23.225 53.426-60.721zM422.293 313.104c0-49.109 40.044-88.418 89.965-88.418 49.815 0 89.966 39.309 89.966 88.418v20.56h-179.93v-20.56z m357.098 483.207H245.975c-11.576 0-18.694-9.8-17.845-19.601l51.621-391.168c0.85-8.948 8.922-15.233 17.845-15.233h89.009v48.257c0 9.8 7.965 17.897 17.845 17.897 9.878 0 17.845-7.989 17.845-17.897v-48.257h180.778v48.257c0 9.8 7.966 17.897 17.845 17.897 9.878 0 17.845-7.989 17.845-17.897v-48.257h89.01c8.92 0 16.888 6.285 17.844 15.233l51.62 391.168c1.803 9.801-7.119 18.644-17.846 19.601z" fill="#194F82" p-id="6155"></path><path d="M513 672c52.34 0 94-48.472 94-108.5S564.388 455 513 455c-52.34 0-94 48.472-94 108.498C419 623.525 461.612 672 513 672z m0-180.298c32.778 0 58.471 32.314 58.471 72.654 0 40.34-26.539 72.654-58.471 72.654-32.778 0-58.471-32.314-58.471-72.654 0-40.34 26.539-72.654 58.471-72.654zM618.998 710H408.85c-9.774 0-17.85 8.035-17.85 18 0 9.858 7.967 18 17.85 18h209.3c9.774 0 17.85-8.035 17.85-18s-7.226-18-17.002-18z" fill="#194F82" p-id="6156"></path></svg>